<svg width="436" height="37" viewBox="0 0 436 37" fill="none" xmlns="http://www.w3.org/2000/svg">
<g filter="url(#filter0_d_85_25)">
<path d="M4.57812 4.75C4.47396 4.39583 4.39062 4.08333 4.32812 3.8125C4.28646 3.52083 4.28646 3.20833 4.32812 2.875C4.34896 2.77083 4.36979 2.65625 4.39062 2.53125C4.43229 2.40625 4.48438 2.3125 4.54688 2.25C4.63021 2.16667 4.73438 2.11458 4.85938 2.09375C4.98438 2.05208 5.15104 2.07292 5.35938 2.15625C5.48438 2.21875 5.60938 2.33333 5.73438 2.5C5.85938 2.64583 5.96354 2.82292 6.04688 3.03125C6.15104 3.23958 6.23438 3.4375 6.29688 3.625C6.35938 3.8125 6.40104 3.96875 6.42188 4.09375C6.98438 3.76042 7.60938 3.42708 8.29688 3.09375C8.98438 2.73958 9.69271 2.44792 10.4219 2.21875C11.1719 1.96875 11.9219 1.79167 12.6719 1.6875C13.4219 1.5625 14.1406 1.54167 14.8281 1.625C15.0573 1.64583 15.3177 1.70833 15.6094 1.8125C15.9219 1.89583 16.2031 2.02083 16.4531 2.1875C16.724 2.33333 16.9427 2.52083 17.1094 2.75C17.2969 2.95833 17.3698 3.20833 17.3281 3.5C17.3281 4.0625 17.2031 4.64583 16.9531 5.25C16.724 5.85417 16.4219 6.45833 16.0469 7.0625C15.6719 7.66667 15.2448 8.26042 14.7656 8.84375C14.3073 9.42708 13.849 9.97917 13.3906 10.5C12.9531 11 12.5365 11.4583 12.1406 11.875C11.7448 12.2917 11.4427 12.6354 11.2344 12.9062C11.9427 12.6354 12.776 12.4062 13.7344 12.2188C14.6927 12.0104 15.6302 11.9375 16.5469 12C17.4844 12.0625 18.3177 12.2917 19.0469 12.6875C19.7969 13.0833 20.2969 13.7292 20.5469 14.625C20.6094 15.1667 20.5052 15.7812 20.2344 16.4688C19.9635 17.1354 19.5781 17.8333 19.0781 18.5625C18.5781 19.2917 17.9844 20.0312 17.2969 20.7812C16.6302 21.5104 15.9219 22.2188 15.1719 22.9062C14.4427 23.5938 13.7031 24.2292 12.9531 24.8125C12.2031 25.3958 11.5052 25.9062 10.8594 26.3438C10.2344 26.7604 9.68229 27.0833 9.20312 27.3125C8.72396 27.5208 8.38021 27.6042 8.17188 27.5625L7.42188 26.3125C7.52604 26.3333 7.85938 26.1667 8.42188 25.8125C8.98438 25.4375 9.65104 24.9583 10.4219 24.375C11.2135 23.7708 12.0573 23.0938 12.9531 22.3438C13.849 21.5729 14.6823 20.8021 15.4531 20.0312C16.2448 19.2604 16.9115 18.5208 17.4531 17.8125C17.9948 17.0833 18.3073 16.4479 18.3906 15.9062C18.4948 15.1771 18.2969 14.6562 17.7969 14.3438C17.3177 14.0104 16.6615 13.8438 15.8281 13.8438C14.9948 13.8438 14.0677 13.9896 13.0469 14.2812C12.026 14.5521 11.0573 14.9167 10.1406 15.375C9.22396 15.8125 8.42188 16.3229 7.73438 16.9062C7.04688 17.4896 6.61979 18.0938 6.45312 18.7188C6.36979 19.3646 6.31771 20.0312 6.29688 20.7188C6.27604 21.4062 6.25521 22.1042 6.23438 22.8125C6.23438 23.5 6.22396 24.1875 6.20312 24.875C6.20312 25.5625 6.16146 26.2188 6.07812 26.8438C6.01562 27.3021 5.92188 27.6771 5.79688 27.9688C5.69271 28.2604 5.39062 28.3646 4.89062 28.2812C4.84896 28.2812 4.77604 28.2708 4.67188 28.25C4.56771 28.2292 4.51562 28.2083 4.51562 28.1875L4.57812 4.75ZM6.48438 7.1875C6.42188 7.60417 6.36979 8.13542 6.32812 8.78125C6.30729 9.42708 6.29688 10.0938 6.29688 10.7812C6.29688 11.4688 6.31771 12.1354 6.35938 12.7812C6.42188 13.4271 6.50521 13.9688 6.60938 14.4062C6.98438 14.0938 7.49479 13.6562 8.14062 13.0938C8.80729 12.5312 9.50521 11.9062 10.2344 11.2188C10.9844 10.5104 11.7135 9.77083 12.4219 9C13.1302 8.22917 13.7135 7.48958 14.1719 6.78125C14.651 6.05208 14.9531 5.39583 15.0781 4.8125C15.2031 4.20833 15.0573 3.72917 14.6406 3.375C14.2656 3.33333 13.8073 3.33333 13.2656 3.375C12.7448 3.39583 12.1927 3.46875 11.6094 3.59375C11.026 3.69792 10.4427 3.85417 9.85938 4.0625C9.27604 4.27083 8.74479 4.53125 8.26562 4.84375C7.78646 5.13542 7.38021 5.47917 7.04688 5.875C6.73438 6.27083 6.54688 6.70833 6.48438 7.1875ZM19.1094 28C19.2552 27.5208 19.4844 26.7292 19.7969 25.625C20.1302 24.5208 20.5573 22.9479 21.0781 20.9062C21.599 18.8438 22.2344 16.2292 22.9844 13.0625C23.7552 9.89583 24.651 6 25.6719 1.375C25.7969 1.16667 25.974 1.03125 26.2031 0.96875C26.4323 0.885417 26.6615 0.864583 26.8906 0.90625C27.1198 0.927083 27.3073 1 27.4531 1.125C27.6198 1.22917 27.6927 1.35417 27.6719 1.5L33.8281 16.4688L37.0156 15.5C37.2865 15.5 37.5156 15.5729 37.7031 15.7188C37.8906 15.8646 37.9948 16.0417 38.0156 16.25C38.0365 16.4583 37.9635 16.6875 37.7969 16.9375C37.6302 17.1667 37.3385 17.3542 36.9219 17.5C36.7552 17.5625 36.5365 17.6354 36.2656 17.7188C35.9948 17.7812 35.724 17.8438 35.4531 17.9062C35.1823 17.9688 34.9531 18.0312 34.7656 18.0938C34.5781 18.1562 34.4844 18.2188 34.4844 18.2812L37.9531 27.5312C37.9115 27.6354 37.8698 27.7708 37.8281 27.9375C37.7865 28.0833 37.7031 28.1979 37.5781 28.2812C37.4531 28.3854 37.2656 28.4167 37.0156 28.375C36.7656 28.3542 36.4115 28.2083 35.9531 27.9375L32.3594 18.75C31.9219 18.875 31.3802 19 30.7344 19.125C30.0885 19.2292 29.4115 19.3438 28.7031 19.4688C27.9948 19.5729 27.276 19.7083 26.5469 19.875C25.8385 20.0208 25.1823 20.2083 24.5781 20.4375C23.974 20.6667 23.4635 20.9479 23.0469 21.2812C22.6302 21.5938 22.3802 21.9792 22.2969 22.4375C22.2552 22.7292 22.1719 23.2083 22.0469 23.875C21.9427 24.5417 21.8385 25.2083 21.7344 25.875C21.6094 26.6667 21.4635 27.5208 21.2969 28.4375C20.9219 28.8125 20.5781 28.9375 20.2656 28.8125C19.974 28.6875 19.5885 28.4167 19.1094 28ZM26.9531 4.8125L23.6406 18.7188C23.9948 18.5938 24.4844 18.4583 25.1094 18.3125C25.7344 18.1667 26.4115 18.0104 27.1406 17.8438C27.8698 17.6771 28.599 17.5104 29.3281 17.3438C30.0781 17.1771 30.7552 17 31.3594 16.8125L26.9531 4.8125ZM38.7969 1.84375C38.8594 1.69792 38.9844 1.58333 39.1719 1.5C39.3802 1.41667 39.5885 1.375 39.7969 1.375C40.026 1.375 40.224 1.4375 40.3906 1.5625C40.5573 1.66667 40.6615 1.84375 40.7031 2.09375L40.8906 3.8125C41.2865 3.72917 41.7552 3.5625 42.2969 3.3125C42.8385 3.04167 43.4635 2.78125 44.1719 2.53125C44.901 2.28125 45.7135 2.07292 46.6094 1.90625C47.5052 1.73958 48.5052 1.71875 49.6094 1.84375C51.3177 2.17708 52.5573 2.57292 53.3281 3.03125C54.099 3.48958 54.5052 4 54.5469 4.5625C54.6094 5.10417 54.3802 5.69792 53.8594 6.34375C53.3594 6.96875 52.6823 7.60417 51.8281 8.25C50.974 8.89583 50.0156 9.55208 48.9531 10.2188C47.8906 10.8854 46.849 11.5312 45.8281 12.1562C44.8281 12.7604 43.8906 13.3438 43.0156 13.9062C42.1615 14.4479 41.5156 14.9479 41.0781 15.4062L55.7344 24.2188C55.7344 24.5521 55.599 24.875 55.3281 25.1875C55.0573 25.4792 54.7448 25.6042 54.3906 25.5625L40.6094 17.625V28C40.3594 28.2083 40.1406 28.3438 39.9531 28.4062C39.7865 28.4688 39.651 28.4896 39.5469 28.4688C39.4427 28.4479 39.349 28.3854 39.2656 28.2812C39.1823 28.1979 39.1094 28.1042 39.0469 28L38.7969 1.84375ZM40.8906 6.15625C40.849 6.57292 40.8177 7.07292 40.7969 7.65625C40.776 8.23958 40.7656 8.86458 40.7656 9.53125C40.7656 10.1771 40.7656 10.8229 40.7656 11.4688C40.7656 12.0938 40.7656 12.6562 40.7656 13.1562C40.8698 13.0521 41.1927 12.8646 41.7344 12.5938C42.2969 12.3021 42.974 11.9479 43.7656 11.5312C44.5573 11.1146 45.401 10.6562 46.2969 10.1562C47.2135 9.63542 48.0781 9.10417 48.8906 8.5625C49.7031 8.02083 50.4115 7.48958 51.0156 6.96875C51.6406 6.42708 52.0365 5.92708 52.2031 5.46875C52.3906 5.01042 52.2969 4.60417 51.9219 4.25C51.5677 3.875 50.8281 3.58333 49.7031 3.375C49.0781 3.33333 48.3385 3.35417 47.4844 3.4375C46.651 3.52083 45.8073 3.67708 44.9531 3.90625C44.1198 4.11458 43.3385 4.40625 42.6094 4.78125C41.8802 5.15625 41.3073 5.61458 40.8906 6.15625ZM56.7031 21.7812C56.7031 21.0312 56.776 20.0104 56.9219 18.7188C57.0885 17.4271 57.3177 16.0312 57.6094 14.5312C57.9219 13.0312 58.3177 11.5208 58.7969 10C59.276 8.45833 59.8385 7.07292 60.4844 5.84375C61.1302 4.59375 61.8594 3.57292 62.6719 2.78125C63.5052 1.98958 64.4219 1.59375 65.4219 1.59375C65.9844 1.59375 66.4635 1.69792 66.8594 1.90625C67.276 2.11458 67.6198 2.39583 67.8906 2.75C68.1615 3.10417 68.3594 3.51042 68.4844 3.96875C68.6094 4.42708 68.6719 4.91667 68.6719 5.4375C68.1094 5.70833 67.6823 5.77083 67.3906 5.625C67.099 5.47917 66.8594 5.26042 66.6719 4.96875C66.5052 4.65625 66.3385 4.33333 66.1719 4C66.0052 3.66667 65.7656 3.45833 65.4531 3.375C64.7031 3.375 64.0156 3.73958 63.3906 4.46875C62.7656 5.17708 62.2031 6.08333 61.7031 7.1875C61.2031 8.29167 60.7656 9.52083 60.3906 10.875C60.0156 12.2292 59.7031 13.5521 59.4531 14.8438C59.2031 16.1146 59.0156 17.2708 58.8906 18.3125C58.7656 19.3542 58.7031 20.125 58.7031 20.625C58.7031 21.2917 58.724 21.9375 58.7656 22.5625C58.8281 23.1667 58.9635 23.7083 59.1719 24.1875C59.401 24.6667 59.7344 25.0521 60.1719 25.3438C60.6094 25.6146 61.224 25.75 62.0156 25.75C62.9531 25.75 63.8698 25.4792 64.7656 24.9375C65.6823 24.3958 66.5156 23.7188 67.2656 22.9062C68.0365 22.0938 68.7031 21.2292 69.2656 20.3125C69.849 19.375 70.2656 18.5312 70.5156 17.7812C70.5573 17.7604 70.6615 17.75 70.8281 17.75C70.9948 17.7292 71.099 17.7188 71.1406 17.7188C71.4115 17.7188 71.6719 17.75 71.9219 17.8125C72.1719 17.875 72.2969 18.0833 72.2969 18.4375C72.151 19.1875 71.8177 19.9792 71.2969 20.8125C70.7969 21.625 70.1927 22.4271 69.4844 23.2188C68.7969 23.9896 68.0365 24.7188 67.2031 25.4062C66.3906 26.0729 65.5885 26.6354 64.7969 27.0938C64.0052 27.5521 63.2656 27.8646 62.5781 28.0312C61.9115 28.2188 61.3698 28.2083 60.9531 28C60.2031 28 59.5573 27.7917 59.0156 27.375C58.474 26.9375 58.026 26.4062 57.6719 25.7812C57.3385 25.1562 57.0885 24.4896 56.9219 23.7812C56.776 23.0521 56.7031 22.3854 56.7031 21.7812ZM84.9531 13.4375C84.7865 13.5417 84.4844 13.6875 84.0469 13.875C83.6094 14.0417 83.099 14.2292 82.5156 14.4375C81.9531 14.6458 81.349 14.8646 80.7031 15.0938C80.0781 15.3229 79.474 15.5521 78.8906 15.7812C78.3281 15.9896 77.8177 16.1875 77.3594 16.375C76.9219 16.5417 76.6198 16.6875 76.4531 16.8125C76.0781 17.0833 75.7969 17.4688 75.6094 17.9688C75.4219 18.4479 75.2865 19 75.2031 19.625C75.1198 20.2292 75.0781 20.8854 75.0781 21.5938C75.0781 22.2812 75.099 22.9583 75.1406 23.625C75.1823 24.2917 75.224 24.9271 75.2656 25.5312C75.3281 26.1354 75.3698 26.6458 75.3906 27.0625C75.3698 27.3958 75.2448 27.6979 75.0156 27.9688C74.8073 28.2188 74.5365 28.3438 74.2031 28.3438C74.0781 28.3438 73.9323 28.3125 73.7656 28.25C73.599 28.1875 73.526 28.0729 73.5469 27.9062L73.4531 2.375C73.4531 2.08333 73.5156 1.875 73.6406 1.75C73.7656 1.60417 73.9219 1.53125 74.1094 1.53125C74.2969 1.51042 74.4948 1.54167 74.7031 1.625C74.9115 1.70833 75.099 1.8125 75.2656 1.9375C75.2865 2.85417 75.2969 3.90625 75.2969 5.09375C75.2969 6.28125 75.2969 7.47917 75.2969 8.6875C75.3177 9.89583 75.349 11.0625 75.3906 12.1875C75.4531 13.3125 75.5573 14.2708 75.7031 15.0625C76.724 14.625 77.7656 14.2604 78.8281 13.9688C79.8906 13.6562 80.849 13.3021 81.7031 12.9062C82.5781 12.4896 83.2969 11.9688 83.8594 11.3438C84.4219 10.6979 84.7344 9.83333 84.7969 8.75C84.8385 8.1875 84.8594 7.6875 84.8594 7.25C84.8594 6.8125 84.8385 6.375 84.7969 5.9375C84.776 5.5 84.7135 5.04167 84.6094 4.5625C84.526 4.0625 84.4115 3.47917 84.2656 2.8125C84.2656 2.39583 84.349 2.13542 84.5156 2.03125C84.7031 1.90625 84.9323 1.84375 85.2031 1.84375C85.4948 1.84375 85.7135 1.91667 85.8594 2.0625C86.026 2.20833 86.1406 2.39583 86.2031 2.625C86.2865 2.83333 86.3385 3.07292 86.3594 3.34375C86.3802 3.61458 86.3906 3.86458 86.3906 4.09375C86.4115 4.44792 86.4323 5 86.4531 5.75C86.474 6.5 86.4948 7.34375 86.5156 8.28125C86.5365 9.19792 86.5573 10.1771 86.5781 11.2188C86.6198 12.2604 86.651 13.25 86.6719 14.1875C86.6927 15.1042 86.7135 15.9375 86.7344 16.6875C86.7552 17.4375 86.7656 17.9896 86.7656 18.3438C86.7865 18.7812 86.7969 19.3646 86.7969 20.0938C86.7969 20.8229 86.7969 21.5833 86.7969 22.375C86.7969 23.1667 86.7865 23.9375 86.7656 24.6875C86.7448 25.4167 86.724 26 86.7031 26.4375C86.6823 26.625 86.6615 26.8125 86.6406 27C86.6406 27.1875 86.6094 27.3646 86.5469 27.5312C86.5052 27.6979 86.4115 27.8438 86.2656 27.9688C86.1406 28.0938 85.9427 28.1875 85.6719 28.25C85.2552 27.9792 85.026 27.6562 84.9844 27.2812C84.9635 26.9062 84.9427 26.5 84.9219 26.0625C84.9219 25.8125 84.9219 25.3646 84.9219 24.7188C84.9427 24.0521 84.9531 23.2917 84.9531 22.4375C84.9531 21.5833 84.9531 20.6875 84.9531 19.75C84.974 18.7917 84.9844 17.8958 84.9844 17.0625C84.9844 16.2083 84.9844 15.4583 84.9844 14.8125C84.9844 14.1458 84.974 13.6875 84.9531 13.4375ZM87.2656 28C87.4115 27.5208 87.6406 26.7292 87.9531 25.625C88.2865 24.5208 88.7135 22.9479 89.2344 20.9062C89.7552 18.8438 90.3906 16.2292 91.1406 13.0625C91.9115 9.89583 92.8073 6 93.8281 1.375C93.9531 1.16667 94.1302 1.03125 94.3594 0.96875C94.5885 0.885417 94.8177 0.864583 95.0469 0.90625C95.276 0.927083 95.4635 1 95.6094 1.125C95.776 1.22917 95.849 1.35417 95.8281 1.5L101.984 16.4688L105.172 15.5C105.443 15.5 105.672 15.5729 105.859 15.7188C106.047 15.8646 106.151 16.0417 106.172 16.25C106.193 16.4583 106.12 16.6875 105.953 16.9375C105.786 17.1667 105.495 17.3542 105.078 17.5C104.911 17.5625 104.693 17.6354 104.422 17.7188C104.151 17.7812 103.88 17.8438 103.609 17.9062C103.339 17.9688 103.109 18.0312 102.922 18.0938C102.734 18.1562 102.641 18.2188 102.641 18.2812L106.109 27.5312C106.068 27.6354 106.026 27.7708 105.984 27.9375C105.943 28.0833 105.859 28.1979 105.734 28.2812C105.609 28.3854 105.422 28.4167 105.172 28.375C104.922 28.3542 104.568 28.2083 104.109 27.9375L100.516 18.75C100.078 18.875 99.5365 19 98.8906 19.125C98.2448 19.2292 97.5677 19.3438 96.8594 19.4688C96.151 19.5729 95.4323 19.7083 94.7031 19.875C93.9948 20.0208 93.3385 20.2083 92.7344 20.4375C92.1302 20.6667 91.6198 20.9479 91.2031 21.2812C90.7865 21.5938 90.5365 21.9792 90.4531 22.4375C90.4115 22.7292 90.3281 23.2083 90.2031 23.875C90.099 24.5417 89.9948 25.2083 89.8906 25.875C89.7656 26.6667 89.6198 27.5208 89.4531 28.4375C89.0781 28.8125 88.7344 28.9375 88.4219 28.8125C88.1302 28.6875 87.7448 28.4167 87.2656 28ZM95.1094 4.8125L91.7969 18.7188C92.151 18.5938 92.6406 18.4583 93.2656 18.3125C93.8906 18.1667 94.5677 18.0104 95.2969 17.8438C96.026 17.6771 96.7552 17.5104 97.4844 17.3438C98.2344 17.1771 98.9115 17 99.5156 16.8125L95.1094 4.8125ZM136.922 18.75C136.693 19.6042 136.411 20.5625 136.078 21.625C135.745 22.6875 135.318 23.6875 134.797 24.625C134.276 25.5625 133.641 26.3542 132.891 27C132.161 27.6458 131.276 27.9688 130.234 27.9688C129.151 27.6979 128.214 27.1667 127.422 26.375C126.651 25.5833 125.995 24.625 125.453 23.5C124.911 22.375 124.474 21.1354 124.141 19.7812C123.807 18.4062 123.547 17.0104 123.359 15.5938C123.193 14.1562 123.078 12.75 123.016 11.375C122.974 9.97917 122.953 8.69792 122.953 7.53125C122.974 6.36458 123.005 5.36458 123.047 4.53125C123.109 3.67708 123.161 3.07292 123.203 2.71875C123.141 2.38542 123.214 2.13542 123.422 1.96875C123.63 1.80208 123.87 1.70833 124.141 1.6875C124.411 1.66667 124.661 1.70833 124.891 1.8125C125.141 1.91667 125.276 2.05208 125.297 2.21875C124.88 5.28125 124.661 7.97917 124.641 10.3125C124.641 12.6458 124.766 14.6875 125.016 16.4375C125.266 18.1667 125.62 19.625 126.078 20.8125C126.557 22 127.057 22.9792 127.578 23.75C128.12 24.5 128.672 25.0729 129.234 25.4688C129.797 25.8438 130.297 26.0938 130.734 26.2188C131.443 26.1562 132.068 25.7917 132.609 25.125C133.172 24.4375 133.661 23.5625 134.078 22.5C134.495 21.4167 134.849 20.1979 135.141 18.8438C135.453 17.4896 135.714 16.0938 135.922 14.6562C136.13 13.2188 136.297 11.8021 136.422 10.4062C136.547 8.98958 136.641 7.70833 136.703 6.5625C136.766 5.41667 136.797 4.44792 136.797 3.65625C136.818 2.84375 136.818 2.32292 136.797 2.09375C136.943 1.84375 137.109 1.67708 137.297 1.59375C137.505 1.51042 137.693 1.47917 137.859 1.5C138.047 1.52083 138.214 1.59375 138.359 1.71875C138.505 1.82292 138.609 1.94792 138.672 2.09375C138.693 2.63542 138.641 3.64583 138.516 5.125C138.411 6.58333 138.339 8.42708 138.297 10.6562C138.276 12.8646 138.349 15.4167 138.516 18.3125C138.682 21.1875 139.068 24.2917 139.672 27.625C139.672 27.8333 139.599 27.9896 139.453 28.0938C139.328 28.1979 139.172 28.2604 138.984 28.2812C138.797 28.3229 138.599 28.3333 138.391 28.3125C138.182 28.3125 138.005 28.3021 137.859 28.2812L136.922 18.75ZM141.109 21.7812C141.109 21.0312 141.182 20.0104 141.328 18.7188C141.495 17.4271 141.724 16.0312 142.016 14.5312C142.328 13.0312 142.724 11.5208 143.203 10C143.682 8.45833 144.245 7.07292 144.891 5.84375C145.536 4.59375 146.266 3.57292 147.078 2.78125C147.911 1.98958 148.828 1.59375 149.828 1.59375C150.391 1.59375 150.87 1.69792 151.266 1.90625C151.682 2.11458 152.026 2.39583 152.297 2.75C152.568 3.10417 152.766 3.51042 152.891 3.96875C153.016 4.42708 153.078 4.91667 153.078 5.4375C152.516 5.70833 152.089 5.77083 151.797 5.625C151.505 5.47917 151.266 5.26042 151.078 4.96875C150.911 4.65625 150.745 4.33333 150.578 4C150.411 3.66667 150.172 3.45833 149.859 3.375C149.109 3.375 148.422 3.73958 147.797 4.46875C147.172 5.17708 146.609 6.08333 146.109 7.1875C145.609 8.29167 145.172 9.52083 144.797 10.875C144.422 12.2292 144.109 13.5521 143.859 14.8438C143.609 16.1146 143.422 17.2708 143.297 18.3125C143.172 19.3542 143.109 20.125 143.109 20.625C143.109 21.2917 143.13 21.9375 143.172 22.5625C143.234 23.1667 143.37 23.7083 143.578 24.1875C143.807 24.6667 144.141 25.0521 144.578 25.3438C145.016 25.6146 145.63 25.75 146.422 25.75C147.359 25.75 148.276 25.4792 149.172 24.9375C150.089 24.3958 150.922 23.7188 151.672 22.9062C152.443 22.0938 153.109 21.2292 153.672 20.3125C154.255 19.375 154.672 18.5312 154.922 17.7812C154.964 17.7604 155.068 17.75 155.234 17.75C155.401 17.7292 155.505 17.7188 155.547 17.7188C155.818 17.7188 156.078 17.75 156.328 17.8125C156.578 17.875 156.703 18.0833 156.703 18.4375C156.557 19.1875 156.224 19.9792 155.703 20.8125C155.203 21.625 154.599 22.4271 153.891 23.2188C153.203 23.9896 152.443 24.7188 151.609 25.4062C150.797 26.0729 149.995 26.6354 149.203 27.0938C148.411 27.5521 147.672 27.8646 146.984 28.0312C146.318 28.2188 145.776 28.2083 145.359 28C144.609 28 143.964 27.7917 143.422 27.375C142.88 26.9375 142.432 26.4062 142.078 25.7812C141.745 25.1562 141.495 24.4896 141.328 23.7812C141.182 23.0521 141.109 22.3854 141.109 21.7812ZM169.359 13.4375C169.193 13.5417 168.891 13.6875 168.453 13.875C168.016 14.0417 167.505 14.2292 166.922 14.4375C166.359 14.6458 165.755 14.8646 165.109 15.0938C164.484 15.3229 163.88 15.5521 163.297 15.7812C162.734 15.9896 162.224 16.1875 161.766 16.375C161.328 16.5417 161.026 16.6875 160.859 16.8125C160.484 17.0833 160.203 17.4688 160.016 17.9688C159.828 18.4479 159.693 19 159.609 19.625C159.526 20.2292 159.484 20.8854 159.484 21.5938C159.484 22.2812 159.505 22.9583 159.547 23.625C159.589 24.2917 159.63 24.9271 159.672 25.5312C159.734 26.1354 159.776 26.6458 159.797 27.0625C159.776 27.3958 159.651 27.6979 159.422 27.9688C159.214 28.2188 158.943 28.3438 158.609 28.3438C158.484 28.3438 158.339 28.3125 158.172 28.25C158.005 28.1875 157.932 28.0729 157.953 27.9062L157.859 2.375C157.859 2.08333 157.922 1.875 158.047 1.75C158.172 1.60417 158.328 1.53125 158.516 1.53125C158.703 1.51042 158.901 1.54167 159.109 1.625C159.318 1.70833 159.505 1.8125 159.672 1.9375C159.693 2.85417 159.703 3.90625 159.703 5.09375C159.703 6.28125 159.703 7.47917 159.703 8.6875C159.724 9.89583 159.755 11.0625 159.797 12.1875C159.859 13.3125 159.964 14.2708 160.109 15.0625C161.13 14.625 162.172 14.2604 163.234 13.9688C164.297 13.6562 165.255 13.3021 166.109 12.9062C166.984 12.4896 167.703 11.9688 168.266 11.3438C168.828 10.6979 169.141 9.83333 169.203 8.75C169.245 8.1875 169.266 7.6875 169.266 7.25C169.266 6.8125 169.245 6.375 169.203 5.9375C169.182 5.5 169.12 5.04167 169.016 4.5625C168.932 4.0625 168.818 3.47917 168.672 2.8125C168.672 2.39583 168.755 2.13542 168.922 2.03125C169.109 1.90625 169.339 1.84375 169.609 1.84375C169.901 1.84375 170.12 1.91667 170.266 2.0625C170.432 2.20833 170.547 2.39583 170.609 2.625C170.693 2.83333 170.745 3.07292 170.766 3.34375C170.786 3.61458 170.797 3.86458 170.797 4.09375C170.818 4.44792 170.839 5 170.859 5.75C170.88 6.5 170.901 7.34375 170.922 8.28125C170.943 9.19792 170.964 10.1771 170.984 11.2188C171.026 12.2604 171.057 13.25 171.078 14.1875C171.099 15.1042 171.12 15.9375 171.141 16.6875C171.161 17.4375 171.172 17.9896 171.172 18.3438C171.193 18.7812 171.203 19.3646 171.203 20.0938C171.203 20.8229 171.203 21.5833 171.203 22.375C171.203 23.1667 171.193 23.9375 171.172 24.6875C171.151 25.4167 171.13 26 171.109 26.4375C171.089 26.625 171.068 26.8125 171.047 27C171.047 27.1875 171.016 27.3646 170.953 27.5312C170.911 27.6979 170.818 27.8438 170.672 27.9688C170.547 28.0938 170.349 28.1875 170.078 28.25C169.661 27.9792 169.432 27.6562 169.391 27.2812C169.37 26.9062 169.349 26.5 169.328 26.0625C169.328 25.8125 169.328 25.3646 169.328 24.7188C169.349 24.0521 169.359 23.2917 169.359 22.4375C169.359 21.5833 169.359 20.6875 169.359 19.75C169.38 18.7917 169.391 17.8958 169.391 17.0625C169.391 16.2083 169.391 15.4583 169.391 14.8125C169.391 14.1458 169.38 13.6875 169.359 13.4375ZM186.547 18.75C186.318 19.6042 186.036 20.5625 185.703 21.625C185.37 22.6875 184.943 23.6875 184.422 24.625C183.901 25.5625 183.266 26.3542 182.516 27C181.786 27.6458 180.901 27.9688 179.859 27.9688C178.776 27.6979 177.839 27.1667 177.047 26.375C176.276 25.5833 175.62 24.625 175.078 23.5C174.536 22.375 174.099 21.1354 173.766 19.7812C173.432 18.4062 173.172 17.0104 172.984 15.5938C172.818 14.1562 172.703 12.75 172.641 11.375C172.599 9.97917 172.578 8.69792 172.578 7.53125C172.599 6.36458 172.63 5.36458 172.672 4.53125C172.734 3.67708 172.786 3.07292 172.828 2.71875C172.766 2.38542 172.839 2.13542 173.047 1.96875C173.255 1.80208 173.495 1.70833 173.766 1.6875C174.036 1.66667 174.286 1.70833 174.516 1.8125C174.766 1.91667 174.901 2.05208 174.922 2.21875C174.505 5.28125 174.286 7.97917 174.266 10.3125C174.266 12.6458 174.391 14.6875 174.641 16.4375C174.891 18.1667 175.245 19.625 175.703 20.8125C176.182 22 176.682 22.9792 177.203 23.75C177.745 24.5 178.297 25.0729 178.859 25.4688C179.422 25.8438 179.922 26.0938 180.359 26.2188C181.068 26.1562 181.693 25.7917 182.234 25.125C182.797 24.4375 183.286 23.5625 183.703 22.5C184.12 21.4167 184.474 20.1979 184.766 18.8438C185.078 17.4896 185.339 16.0938 185.547 14.6562C185.755 13.2188 185.922 11.8021 186.047 10.4062C186.172 8.98958 186.266 7.70833 186.328 6.5625C186.391 5.41667 186.422 4.44792 186.422 3.65625C186.443 2.84375 186.443 2.32292 186.422 2.09375C186.568 1.84375 186.734 1.67708 186.922 1.59375C187.13 1.51042 187.318 1.47917 187.484 1.5C187.672 1.52083 187.839 1.59375 187.984 1.71875C188.13 1.82292 188.234 1.94792 188.297 2.09375C188.318 2.63542 188.266 3.64583 188.141 5.125C188.036 6.58333 187.964 8.42708 187.922 10.6562C187.901 12.8646 187.974 15.4167 188.141 18.3125C188.307 21.1875 188.693 24.2917 189.297 27.625C189.297 27.8333 189.224 27.9896 189.078 28.0938C188.953 28.1979 188.797 28.2604 188.609 28.2812C188.422 28.3229 188.224 28.3333 188.016 28.3125C187.807 28.3125 187.63 28.3021 187.484 28.2812L186.547 18.75ZM190.703 1.71875C190.932 1.38542 191.203 1.29167 191.516 1.4375C191.849 1.5625 192.151 1.77083 192.422 2.0625C192.714 2.33333 192.943 2.61458 193.109 2.90625C193.276 3.17708 193.318 3.30208 193.234 3.28125L204.703 22.875C204.766 22.5625 204.818 22.0625 204.859 21.375C204.922 20.6667 204.964 19.8438 204.984 18.9062C205.005 17.9479 205.005 16.9062 204.984 15.7812C204.984 14.6562 204.964 13.5312 204.922 12.4062C204.901 11.2812 204.859 10.1771 204.797 9.09375C204.734 8.01042 204.661 7.04167 204.578 6.1875C204.495 5.3125 204.401 4.59375 204.297 4.03125C204.193 3.44792 204.068 3.09375 203.922 2.96875C203.922 2.63542 203.984 2.32292 204.109 2.03125C204.234 1.71875 204.484 1.5625 204.859 1.5625C205.214 1.5625 205.505 1.77083 205.734 2.1875C205.964 2.60417 206.141 3.07292 206.266 3.59375C206.391 4.11458 206.474 4.625 206.516 5.125C206.578 5.625 206.609 5.94792 206.609 6.09375C206.63 6.51042 206.641 7.17708 206.641 8.09375C206.661 8.98958 206.672 10.0208 206.672 11.1875C206.693 12.3542 206.703 13.5833 206.703 14.875C206.724 16.1458 206.734 17.3646 206.734 18.5312C206.755 19.6979 206.766 20.7396 206.766 21.6562C206.766 22.5729 206.776 23.2396 206.797 23.6562C206.818 24.2396 206.891 24.75 207.016 25.1875C207.161 25.625 207.234 26.125 207.234 26.6875C207.234 27.1458 207.057 27.4896 206.703 27.7188C206.37 27.9479 205.995 28.0625 205.578 28.0625C205.349 28.0625 205.141 28.0312 204.953 27.9688C204.786 27.9062 204.651 27.8021 204.547 27.6562C204.443 27.5104 204.38 27.3229 204.359 27.0938C204.359 26.8438 204.411 26.5417 204.516 26.1875C204.141 25.75 203.661 25.0208 203.078 24C202.495 22.9583 201.849 21.7917 201.141 20.5C200.453 19.1875 199.724 17.8125 198.953 16.375C198.203 14.9375 197.474 13.5833 196.766 12.3125C196.078 11.0208 195.432 9.89583 194.828 8.9375C194.224 7.97917 193.734 7.32292 193.359 6.96875C193.255 8.32292 193.224 9.89583 193.266 11.6875C193.307 13.4583 193.38 15.2812 193.484 17.1562C193.589 19.0104 193.693 20.8229 193.797 22.5938C193.922 24.3646 193.984 25.9271 193.984 27.2812C193.984 27.7188 193.859 27.9896 193.609 28.0938C193.359 28.2188 193.099 28.25 192.828 28.1875C192.557 28.125 192.328 28.0208 192.141 27.875C191.953 27.7083 191.922 27.5833 192.047 27.5L190.703 1.71875ZM225.266 4.75C225.161 4.39583 225.078 4.08333 225.016 3.8125C224.974 3.52083 224.974 3.20833 225.016 2.875C225.036 2.77083 225.057 2.65625 225.078 2.53125C225.12 2.40625 225.172 2.3125 225.234 2.25C225.318 2.16667 225.422 2.11458 225.547 2.09375C225.672 2.05208 225.839 2.07292 226.047 2.15625C226.172 2.21875 226.297 2.33333 226.422 2.5C226.547 2.64583 226.651 2.82292 226.734 3.03125C226.839 3.23958 226.922 3.4375 226.984 3.625C227.047 3.8125 227.089 3.96875 227.109 4.09375C227.672 3.76042 228.297 3.42708 228.984 3.09375C229.672 2.73958 230.38 2.44792 231.109 2.21875C231.859 1.96875 232.609 1.79167 233.359 1.6875C234.109 1.5625 234.828 1.54167 235.516 1.625C235.745 1.64583 236.005 1.70833 236.297 1.8125C236.609 1.89583 236.891 2.02083 237.141 2.1875C237.411 2.33333 237.63 2.52083 237.797 2.75C237.984 2.95833 238.057 3.20833 238.016 3.5C238.016 4.0625 237.891 4.64583 237.641 5.25C237.411 5.85417 237.109 6.45833 236.734 7.0625C236.359 7.66667 235.932 8.26042 235.453 8.84375C234.995 9.42708 234.536 9.97917 234.078 10.5C233.641 11 233.224 11.4583 232.828 11.875C232.432 12.2917 232.13 12.6354 231.922 12.9062C232.63 12.6354 233.464 12.4062 234.422 12.2188C235.38 12.0104 236.318 11.9375 237.234 12C238.172 12.0625 239.005 12.2917 239.734 12.6875C240.484 13.0833 240.984 13.7292 241.234 14.625C241.297 15.1667 241.193 15.7812 240.922 16.4688C240.651 17.1354 240.266 17.8333 239.766 18.5625C239.266 19.2917 238.672 20.0312 237.984 20.7812C237.318 21.5104 236.609 22.2188 235.859 22.9062C235.13 23.5938 234.391 24.2292 233.641 24.8125C232.891 25.3958 232.193 25.9062 231.547 26.3438C230.922 26.7604 230.37 27.0833 229.891 27.3125C229.411 27.5208 229.068 27.6042 228.859 27.5625L228.109 26.3125C228.214 26.3333 228.547 26.1667 229.109 25.8125C229.672 25.4375 230.339 24.9583 231.109 24.375C231.901 23.7708 232.745 23.0938 233.641 22.3438C234.536 21.5729 235.37 20.8021 236.141 20.0312C236.932 19.2604 237.599 18.5208 238.141 17.8125C238.682 17.0833 238.995 16.4479 239.078 15.9062C239.182 15.1771 238.984 14.6562 238.484 14.3438C238.005 14.0104 237.349 13.8438 236.516 13.8438C235.682 13.8438 234.755 13.9896 233.734 14.2812C232.714 14.5521 231.745 14.9167 230.828 15.375C229.911 15.8125 229.109 16.3229 228.422 16.9062C227.734 17.4896 227.307 18.0938 227.141 18.7188C227.057 19.3646 227.005 20.0312 226.984 20.7188C226.964 21.4062 226.943 22.1042 226.922 22.8125C226.922 23.5 226.911 24.1875 226.891 24.875C226.891 25.5625 226.849 26.2188 226.766 26.8438C226.703 27.3021 226.609 27.6771 226.484 27.9688C226.38 28.2604 226.078 28.3646 225.578 28.2812C225.536 28.2812 225.464 28.2708 225.359 28.25C225.255 28.2292 225.203 28.2083 225.203 28.1875L225.266 4.75ZM227.172 7.1875C227.109 7.60417 227.057 8.13542 227.016 8.78125C226.995 9.42708 226.984 10.0938 226.984 10.7812C226.984 11.4688 227.005 12.1354 227.047 12.7812C227.109 13.4271 227.193 13.9688 227.297 14.4062C227.672 14.0938 228.182 13.6562 228.828 13.0938C229.495 12.5312 230.193 11.9062 230.922 11.2188C231.672 10.5104 232.401 9.77083 233.109 9C233.818 8.22917 234.401 7.48958 234.859 6.78125C235.339 6.05208 235.641 5.39583 235.766 4.8125C235.891 4.20833 235.745 3.72917 235.328 3.375C234.953 3.33333 234.495 3.33333 233.953 3.375C233.432 3.39583 232.88 3.46875 232.297 3.59375C231.714 3.69792 231.13 3.85417 230.547 4.0625C229.964 4.27083 229.432 4.53125 228.953 4.84375C228.474 5.13542 228.068 5.47917 227.734 5.875C227.422 6.27083 227.234 6.70833 227.172 7.1875ZM242.797 1.8125C242.88 1.6875 243.005 1.60417 243.172 1.5625C243.359 1.5 243.547 1.47917 243.734 1.5C243.922 1.52083 244.099 1.57292 244.266 1.65625C244.453 1.73958 244.578 1.83333 244.641 1.9375L245.109 27.5625C245.109 27.8125 245.047 27.9896 244.922 28.0938C244.797 28.1979 244.641 28.25 244.453 28.25C244.286 28.2708 244.109 28.25 243.922 28.1875C243.734 28.125 243.578 28.0312 243.453 27.9062L242.797 1.8125ZM247.203 1.84375C247.266 1.69792 247.391 1.58333 247.578 1.5C247.786 1.41667 247.995 1.375 248.203 1.375C248.432 1.375 248.63 1.4375 248.797 1.5625C248.964 1.66667 249.068 1.84375 249.109 2.09375L249.297 3.8125C249.693 3.72917 250.161 3.5625 250.703 3.3125C251.245 3.04167 251.87 2.78125 252.578 2.53125C253.307 2.28125 254.12 2.07292 255.016 1.90625C255.911 1.73958 256.911 1.71875 258.016 1.84375C259.724 2.17708 260.964 2.57292 261.734 3.03125C262.505 3.48958 262.911 4 262.953 4.5625C263.016 5.10417 262.786 5.69792 262.266 6.34375C261.766 6.96875 261.089 7.60417 260.234 8.25C259.38 8.89583 258.422 9.55208 257.359 10.2188C256.297 10.8854 255.255 11.5312 254.234 12.1562C253.234 12.7604 252.297 13.3438 251.422 13.9062C250.568 14.4479 249.922 14.9479 249.484 15.4062L264.141 24.2188C264.141 24.5521 264.005 24.875 263.734 25.1875C263.464 25.4792 263.151 25.6042 262.797 25.5625L249.016 17.625V28C248.766 28.2083 248.547 28.3438 248.359 28.4062C248.193 28.4688 248.057 28.4896 247.953 28.4688C247.849 28.4479 247.755 28.3854 247.672 28.2812C247.589 28.1979 247.516 28.1042 247.453 28L247.203 1.84375ZM249.297 6.15625C249.255 6.57292 249.224 7.07292 249.203 7.65625C249.182 8.23958 249.172 8.86458 249.172 9.53125C249.172 10.1771 249.172 10.8229 249.172 11.4688C249.172 12.0938 249.172 12.6562 249.172 13.1562C249.276 13.0521 249.599 12.8646 250.141 12.5938C250.703 12.3021 251.38 11.9479 252.172 11.5312C252.964 11.1146 253.807 10.6562 254.703 10.1562C255.62 9.63542 256.484 9.10417 257.297 8.5625C258.109 8.02083 258.818 7.48958 259.422 6.96875C260.047 6.42708 260.443 5.92708 260.609 5.46875C260.797 5.01042 260.703 4.60417 260.328 4.25C259.974 3.875 259.234 3.58333 258.109 3.375C257.484 3.33333 256.745 3.35417 255.891 3.4375C255.057 3.52083 254.214 3.67708 253.359 3.90625C252.526 4.11458 251.745 4.40625 251.016 4.78125C250.286 5.15625 249.714 5.61458 249.297 6.15625ZM269.828 26.8438C269.807 26.6354 270.068 26.25 270.609 25.6875C271.151 25.125 271.839 24.4375 272.672 23.625C273.505 22.8125 274.411 21.8854 275.391 20.8438C276.391 19.7812 277.328 18.6458 278.203 17.4375C279.078 16.2083 279.818 14.9271 280.422 13.5938C281.047 12.2396 281.401 10.8646 281.484 9.46875C281.484 8.82292 281.307 8.25 280.953 7.75C280.599 7.22917 280.141 6.77083 279.578 6.375C279.036 5.95833 278.411 5.60417 277.703 5.3125C276.995 5.02083 276.286 4.78125 275.578 4.59375C274.891 4.38542 274.224 4.23958 273.578 4.15625C272.932 4.05208 272.391 4 271.953 4C271.849 4 271.693 4.01042 271.484 4.03125C271.297 4.03125 271.078 4.0625 270.828 4.125C270.578 4.16667 270.318 4.22917 270.047 4.3125C269.797 4.375 269.568 4.46875 269.359 4.59375L270.797 23.5938C270.901 23.8229 270.891 24.0729 270.766 24.3438C270.661 24.6146 270.495 24.8438 270.266 25.0312C270.057 25.2188 269.828 25.3229 269.578 25.3438C269.328 25.3438 269.13 25.1979 268.984 24.9062L267.453 5.4375C267.391 5.47917 267.266 5.54167 267.078 5.625C266.911 5.70833 266.734 5.80208 266.547 5.90625C266.359 5.98958 266.182 6.08333 266.016 6.1875C265.849 6.27083 265.734 6.32292 265.672 6.34375C265.651 6.34375 265.609 6.35417 265.547 6.375C265.505 6.375 265.474 6.375 265.453 6.375C265.328 6.375 265.182 6.34375 265.016 6.28125C264.87 6.21875 264.797 6.08333 264.797 5.875C264.797 5.52083 264.87 5.23958 265.016 5.03125C265.182 4.80208 265.38 4.59375 265.609 4.40625C265.859 4.21875 266.12 4.04167 266.391 3.875C266.682 3.6875 266.943 3.44792 267.172 3.15625C267.422 2.86458 267.62 2.5 267.766 2.0625C267.932 1.625 268.016 1.0625 268.016 0.375C268.474 0.375 268.755 0.458333 268.859 0.625C268.984 0.791667 269.057 0.989583 269.078 1.21875C269.099 1.42708 269.13 1.64583 269.172 1.875C269.214 2.08333 269.38 2.23958 269.672 2.34375C270.318 2.28125 271.109 2.26042 272.047 2.28125C272.984 2.30208 273.964 2.40625 274.984 2.59375C276.005 2.78125 277.016 3.05208 278.016 3.40625C279.016 3.73958 279.911 4.19792 280.703 4.78125C281.495 5.36458 282.12 6.07292 282.578 6.90625C283.036 7.71875 283.234 8.67708 283.172 9.78125C283.005 11.4896 282.568 13.1458 281.859 14.75C281.151 16.3333 280.245 17.875 279.141 19.375C278.057 20.875 276.797 22.3438 275.359 23.7812C273.922 25.1979 272.391 26.6042 270.766 28C270.745 28 270.703 28 270.641 28C270.599 28.0208 270.568 28.0312 270.547 28.0312C270.339 28.0312 270.161 27.8854 270.016 27.5938C269.891 27.3021 269.828 27.0521 269.828 26.8438ZM285.453 27.3125C285.453 25.3125 285.484 23.2708 285.547 21.1875C285.63 19.1042 285.661 17.0104 285.641 14.9062C285.641 12.7812 285.557 10.6771 285.391 8.59375C285.224 6.51042 284.911 4.46875 284.453 2.46875C284.453 2.36458 284.495 2.23958 284.578 2.09375C284.661 1.92708 284.766 1.78125 284.891 1.65625C285.016 1.53125 285.151 1.4375 285.297 1.375C285.464 1.29167 285.63 1.28125 285.797 1.34375C286.068 1.44792 286.286 1.65625 286.453 1.96875C286.641 2.26042 286.776 2.58333 286.859 2.9375C286.964 3.29167 287.026 3.63542 287.047 3.96875C287.089 4.28125 287.109 4.51042 287.109 4.65625L299.141 1.65625C299.328 1.69792 299.474 1.8125 299.578 2C299.703 2.16667 299.755 2.36458 299.734 2.59375C299.734 2.80208 299.661 3.01042 299.516 3.21875C299.391 3.42708 299.193 3.57292 298.922 3.65625L287.078 6.875C287.078 8.22917 287.109 9.57292 287.172 10.9062C287.255 12.2396 287.349 13.5938 287.453 14.9688L296.141 11.9375C296.141 11.9375 296.203 11.875 296.328 11.75C296.453 11.625 296.599 11.5208 296.766 11.4375C296.953 11.3542 297.141 11.3229 297.328 11.3438C297.536 11.3646 297.734 11.5208 297.922 11.8125C297.922 12.2292 297.672 12.6146 297.172 12.9688C296.672 13.3021 296.047 13.6146 295.297 13.9062C294.568 14.1979 293.766 14.4792 292.891 14.75C292.036 15 291.234 15.2604 290.484 15.5312C289.755 15.8021 289.141 16.0833 288.641 16.375C288.141 16.6458 287.891 16.9375 287.891 17.25L287.672 25.4688C287.984 25.6562 288.432 25.7188 289.016 25.6562C289.62 25.5729 290.286 25.4271 291.016 25.2188C291.745 25.0104 292.516 24.7604 293.328 24.4688C294.141 24.1562 294.922 23.8646 295.672 23.5938C296.422 23.3229 297.109 23.0833 297.734 22.875C298.38 22.6667 298.901 22.5521 299.297 22.5312C299.484 22.5521 299.651 22.625 299.797 22.75C299.943 22.8542 300.047 22.9792 300.109 23.125C300.172 23.2708 300.172 23.4271 300.109 23.5938C300.068 23.7396 299.932 23.8646 299.703 23.9688C298.891 24.3229 297.911 24.7188 296.766 25.1562C295.62 25.5938 294.432 26.0208 293.203 26.4375C291.995 26.8333 290.818 27.1875 289.672 27.5C288.526 27.7917 287.557 27.9688 286.766 28.0312C286.474 27.9896 286.234 27.9271 286.047 27.8438C285.88 27.7396 285.682 27.5625 285.453 27.3125ZM301.547 2.78125C301.568 2.53125 301.63 2.30208 301.734 2.09375C301.839 1.88542 301.964 1.72917 302.109 1.625C302.276 1.5 302.443 1.44792 302.609 1.46875C302.776 1.46875 302.943 1.5625 303.109 1.75C303.193 1.75 303.255 1.83333 303.297 2C303.359 2.14583 303.401 2.42708 303.422 2.84375C303.443 3.23958 303.453 3.79167 303.453 4.5C303.474 5.20833 303.484 6.11458 303.484 7.21875C303.484 8.32292 303.484 9.65625 303.484 11.2188C303.505 12.7604 303.526 14.5729 303.547 16.6562C303.63 16.5104 303.849 16.1458 304.203 15.5625C304.578 14.9583 305.047 14.2292 305.609 13.375C306.172 12.5 306.797 11.5625 307.484 10.5625C308.193 9.54167 308.911 8.53125 309.641 7.53125C310.391 6.53125 311.13 5.59375 311.859 4.71875C312.609 3.84375 313.297 3.13542 313.922 2.59375C314.547 2.03125 315.099 1.67708 315.578 1.53125C316.078 1.36458 316.443 1.5 316.672 1.9375C314.859 4.27083 313.255 6.30208 311.859 8.03125C310.464 9.76042 309.255 11.3229 308.234 12.7188C307.234 14.0938 306.391 15.3646 305.703 16.5312C305.036 17.6979 304.505 18.8854 304.109 20.0938L317.203 26.4062C317.161 26.7604 317.036 27.0938 316.828 27.4062C316.641 27.7188 316.318 27.8542 315.859 27.8125L303.703 22.1562C303.766 22.4896 303.786 22.8958 303.766 23.375C303.766 23.8333 303.745 24.3125 303.703 24.8125C303.682 25.3125 303.641 25.7917 303.578 26.25C303.516 26.7083 303.474 27.0833 303.453 27.375C303.495 27.8125 303.339 28.1042 302.984 28.25C302.651 28.3958 302.318 28.3229 301.984 28.0312L301.547 2.78125ZM335.328 27.9688C335.328 27.9688 335.234 27.9896 335.047 28.0312C334.88 28.0938 334.693 28.0938 334.484 28.0312C334.276 27.9896 334.099 27.8542 333.953 27.625C333.828 27.375 333.818 26.9583 333.922 26.375L339.922 15.625L333.266 2.90625C333.203 2.42708 333.307 2.09375 333.578 1.90625C333.849 1.69792 334.203 1.64583 334.641 1.75L341.203 13.5312C341.328 13.3438 341.547 12.9688 341.859 12.4062C342.172 11.8229 342.536 11.1458 342.953 10.375C343.37 9.58333 343.807 8.73958 344.266 7.84375C344.724 6.92708 345.172 6.05208 345.609 5.21875C346.047 4.36458 346.443 3.59375 346.797 2.90625C347.172 2.21875 347.464 1.69792 347.672 1.34375C347.797 1.32292 347.943 1.33333 348.109 1.375C348.276 1.41667 348.432 1.47917 348.578 1.5625C348.724 1.64583 348.828 1.76042 348.891 1.90625C348.974 2.03125 348.984 2.1875 348.922 2.375L342.203 15.5L348.922 26.75C349.068 27.0625 349.089 27.3438 348.984 27.5938C348.88 27.8229 348.724 27.9896 348.516 28.0938C348.307 28.1979 348.078 28.2292 347.828 28.1875C347.599 28.1458 347.422 28 347.297 27.75L341.203 17.25L335.453 27.625L335.328 27.9688ZM350.172 1.8125C350.255 1.6875 350.38 1.60417 350.547 1.5625C350.734 1.5 350.922 1.47917 351.109 1.5C351.297 1.52083 351.474 1.57292 351.641 1.65625C351.828 1.73958 351.953 1.83333 352.016 1.9375L352.484 27.5625C352.484 27.8125 352.422 27.9896 352.297 28.0938C352.172 28.1979 352.016 28.25 351.828 28.25C351.661 28.2708 351.484 28.25 351.297 28.1875C351.109 28.125 350.953 28.0312 350.828 27.9062L350.172 1.8125ZM367.516 3.1875L354.609 3.375C354.401 3.3125 354.234 3.21875 354.109 3.09375C354.005 2.96875 353.932 2.83333 353.891 2.6875C353.87 2.52083 353.891 2.36458 353.953 2.21875C354.016 2.07292 354.12 1.96875 354.266 1.90625C354.266 1.88542 354.474 1.86458 354.891 1.84375C355.328 1.80208 355.901 1.77083 356.609 1.75C357.339 1.70833 358.151 1.67708 359.047 1.65625C359.964 1.63542 360.891 1.61458 361.828 1.59375C362.786 1.55208 363.724 1.53125 364.641 1.53125C365.578 1.51042 366.411 1.5 367.141 1.5C367.87 1.47917 368.464 1.46875 368.922 1.46875C369.401 1.44792 369.661 1.4375 369.703 1.4375L369.828 2.90625L356.391 26.0312H369.891C370.078 26.1146 370.214 26.25 370.297 26.4375C370.401 26.625 370.432 26.8229 370.391 27.0312C370.37 27.2188 370.286 27.3854 370.141 27.5312C370.016 27.6771 369.828 27.75 369.578 27.75L355.141 27.7188C354.911 27.7188 354.734 27.6458 354.609 27.5C354.505 27.3542 354.422 27.1771 354.359 26.9688C354.318 26.7604 354.286 26.5417 354.266 26.3125C354.266 26.0625 354.266 25.8438 354.266 25.6562L367.516 3.1875ZM389.016 4.90625C388.932 4.86458 388.797 5.125 388.609 5.6875C388.443 6.25 388.224 6.97917 387.953 7.875C387.682 8.77083 387.38 9.78125 387.047 10.9062C386.734 12.0312 386.391 13.1458 386.016 14.25C385.661 15.3542 385.297 16.3854 384.922 17.3438C384.547 18.3021 384.172 19.0625 383.797 19.625C383.443 20.1875 383.099 20.5 382.766 20.5625C382.453 20.6042 382.161 20.2708 381.891 19.5625C381.557 19.0625 381.182 18.375 380.766 17.5C380.349 16.625 379.901 15.6771 379.422 14.6562C378.964 13.6354 378.474 12.5833 377.953 11.5C377.453 10.3958 376.943 9.375 376.422 8.4375C375.901 7.5 375.391 6.6875 374.891 6C374.391 5.29167 373.911 4.80208 373.453 4.53125C373.453 6.15625 373.547 7.9375 373.734 9.875C373.922 11.8125 374.12 13.7812 374.328 15.7812C374.557 17.7604 374.766 19.7188 374.953 21.6562C375.141 23.5938 375.234 25.3854 375.234 27.0312C375.339 27.2396 375.339 27.4479 375.234 27.6562C375.151 27.8646 375.016 28.0208 374.828 28.125C374.641 28.2292 374.422 28.25 374.172 28.1875C373.922 28.125 373.693 27.9375 373.484 27.625C373.193 25.5417 372.984 23.4167 372.859 21.25C372.734 19.0833 372.609 16.9062 372.484 14.7188C372.359 12.5312 372.203 10.3542 372.016 8.1875C371.849 6.02083 371.589 3.88542 371.234 1.78125C371.214 1.36458 371.286 1.10417 371.453 1C371.62 0.895833 371.828 0.84375 372.078 0.84375C373.016 1.11458 373.859 1.61458 374.609 2.34375C375.359 3.05208 376.036 3.89583 376.641 4.875C377.266 5.83333 377.828 6.88542 378.328 8.03125C378.849 9.17708 379.359 10.3229 379.859 11.4688C380.359 12.5938 380.859 13.6771 381.359 14.7188C381.859 15.7396 382.411 16.625 383.016 17.375C383.099 17.375 383.172 17.3438 383.234 17.2812C383.318 17.1979 383.422 17 383.547 16.6875C383.672 16.3542 383.849 15.8542 384.078 15.1875C384.307 14.5208 384.609 13.5938 384.984 12.4062C385.38 11.2188 385.87 9.72917 386.453 7.9375C387.036 6.125 387.745 3.92708 388.578 1.34375C388.62 1.21875 388.724 1.11458 388.891 1.03125C389.057 0.927083 389.234 0.875 389.422 0.875C389.63 0.875 389.818 0.947917 389.984 1.09375C390.151 1.21875 390.266 1.44792 390.328 1.78125C390.536 3.69792 390.724 5.72917 390.891 7.875C391.078 10 391.276 12.1771 391.484 14.4062C391.693 16.6354 391.932 18.8958 392.203 21.1875C392.474 23.4583 392.807 25.6979 393.203 27.9062C393.161 28.1979 393.068 28.3958 392.922 28.5C392.776 28.625 392.599 28.6771 392.391 28.6562C392.182 28.6354 391.953 28.5625 391.703 28.4375C391.474 28.3333 391.255 28.1979 391.047 28.0312L389.016 4.90625ZM393.766 28C393.911 27.5208 394.141 26.7292 394.453 25.625C394.786 24.5208 395.214 22.9479 395.734 20.9062C396.255 18.8438 396.891 16.2292 397.641 13.0625C398.411 9.89583 399.307 6 400.328 1.375C400.453 1.16667 400.63 1.03125 400.859 0.96875C401.089 0.885417 401.318 0.864583 401.547 0.90625C401.776 0.927083 401.964 1 402.109 1.125C402.276 1.22917 402.349 1.35417 402.328 1.5L408.484 16.4688L411.672 15.5C411.943 15.5 412.172 15.5729 412.359 15.7188C412.547 15.8646 412.651 16.0417 412.672 16.25C412.693 16.4583 412.62 16.6875 412.453 16.9375C412.286 17.1667 411.995 17.3542 411.578 17.5C411.411 17.5625 411.193 17.6354 410.922 17.7188C410.651 17.7812 410.38 17.8438 410.109 17.9062C409.839 17.9688 409.609 18.0312 409.422 18.0938C409.234 18.1562 409.141 18.2188 409.141 18.2812L412.609 27.5312C412.568 27.6354 412.526 27.7708 412.484 27.9375C412.443 28.0833 412.359 28.1979 412.234 28.2812C412.109 28.3854 411.922 28.4167 411.672 28.375C411.422 28.3542 411.068 28.2083 410.609 27.9375L407.016 18.75C406.578 18.875 406.036 19 405.391 19.125C404.745 19.2292 404.068 19.3438 403.359 19.4688C402.651 19.5729 401.932 19.7083 401.203 19.875C400.495 20.0208 399.839 20.2083 399.234 20.4375C398.63 20.6667 398.12 20.9479 397.703 21.2812C397.286 21.5938 397.036 21.9792 396.953 22.4375C396.911 22.7292 396.828 23.2083 396.703 23.875C396.599 24.5417 396.495 25.2083 396.391 25.875C396.266 26.6667 396.12 27.5208 395.953 28.4375C395.578 28.8125 395.234 28.9375 394.922 28.8125C394.63 28.6875 394.245 28.4167 393.766 28ZM401.609 4.8125L398.297 18.7188C398.651 18.5938 399.141 18.4583 399.766 18.3125C400.391 18.1667 401.068 18.0104 401.797 17.8438C402.526 17.6771 403.255 17.5104 403.984 17.3438C404.734 17.1771 405.411 17 406.016 16.8125L401.609 4.8125ZM417.828 3.96875C417.016 3.86458 416.203 3.85417 415.391 3.9375C414.578 4 413.766 4.08333 412.953 4.1875C412.161 4.29167 411.359 4.39583 410.547 4.5C409.734 4.58333 408.922 4.59375 408.109 4.53125C407.88 4.51042 407.641 4.45833 407.391 4.375C407.161 4.29167 407.068 4.07292 407.109 3.71875C407.13 3.48958 407.245 3.26042 407.453 3.03125C407.661 2.80208 407.88 2.69792 408.109 2.71875L417.516 2.15625C417.536 2.05208 417.578 1.90625 417.641 1.71875C417.703 1.51042 417.786 1.3125 417.891 1.125C417.995 0.9375 418.12 0.78125 418.266 0.65625C418.411 0.510417 418.578 0.447917 418.766 0.46875C419.036 0.489583 419.245 0.583333 419.391 0.75C419.557 0.895833 419.693 1.0625 419.797 1.25C419.901 1.41667 419.995 1.57292 420.078 1.71875C420.161 1.86458 420.266 1.94792 420.391 1.96875C423.745 1.96875 427.193 1.90625 430.734 1.78125C430.797 1.78125 430.964 1.79167 431.234 1.8125C431.505 1.8125 431.693 1.82292 431.797 1.84375C431.922 2.19792 431.786 2.47917 431.391 2.6875C431.016 2.875 430.464 3.02083 429.734 3.125C429.026 3.22917 428.214 3.30208 427.297 3.34375C426.38 3.38542 425.464 3.41667 424.547 3.4375C423.651 3.45833 422.797 3.48958 421.984 3.53125C421.193 3.57292 420.568 3.63542 420.109 3.71875C419.943 4.80208 419.849 5.96875 419.828 7.21875C419.807 8.46875 419.807 9.76042 419.828 11.0938C419.87 12.4271 419.932 13.7812 420.016 15.1562C420.099 16.5312 420.172 17.8854 420.234 19.2188C420.318 20.5521 420.37 21.8438 420.391 23.0938C420.411 24.3438 420.38 25.5104 420.297 26.5938C420.422 27.2604 420.359 27.6458 420.109 27.75C419.88 27.8333 419.432 27.8229 418.766 27.7188C418.599 26.8646 418.474 25.8333 418.391 24.625C418.307 23.3958 418.245 22.0729 418.203 20.6562C418.161 19.2188 418.141 17.7396 418.141 16.2188C418.141 14.6771 418.13 13.1667 418.109 11.6875C418.089 10.2083 418.057 8.8125 418.016 7.5C417.995 6.16667 417.932 4.98958 417.828 3.96875ZM429.703 26.75C429.703 26.3333 429.807 26.0417 430.016 25.875C430.245 25.7083 430.495 25.6458 430.766 25.6875C431.036 25.7292 431.286 25.8542 431.516 26.0625C431.745 26.2708 431.859 26.5417 431.859 26.875C431.859 27.2292 431.734 27.5 431.484 27.6875C431.255 27.875 430.995 27.9688 430.703 27.9688C430.432 27.9479 430.182 27.8438 429.953 27.6562C429.745 27.4479 429.661 27.1458 429.703 26.75ZM429.734 2.125C429.901 1.85417 430.078 1.6875 430.266 1.625C430.453 1.5625 430.63 1.55208 430.797 1.59375C430.964 1.63542 431.099 1.70833 431.203 1.8125C431.328 1.89583 431.401 1.96875 431.422 2.03125C431.422 3.30208 431.401 4.78125 431.359 6.46875C431.318 8.13542 431.286 9.84375 431.266 11.5938C431.245 13.3438 431.245 15.0521 431.266 16.7188C431.307 18.3854 431.391 19.8438 431.516 21.0938C431.432 21.3438 431.286 21.5208 431.078 21.625C430.891 21.7083 430.693 21.7396 430.484 21.7188C430.297 21.6771 430.12 21.5938 429.953 21.4688C429.786 21.3438 429.682 21.1875 429.641 21L429.734 2.125Z" fill="#1B1B1B"/>
</g>
<defs>
<filter id="filter0_d_85_25" x="0.265625" y="0.375" width="435.719" height="36.625" filterUnits="userSpaceOnUse" color-interpolation-filters="sRGB">
<feFlood flood-opacity="0" result="BackgroundImageFix"/>
<feColorMatrix in="SourceAlpha" type="matrix" values="0 0 0 0 0 0 0 0 0 0 0 0 0 0 0 0 0 0 127 0" result="hardAlpha"/>
<feOffset dy="4"/>
<feGaussianBlur stdDeviation="2"/>
<feComposite in2="hardAlpha" operator="out"/>
<feColorMatrix type="matrix" values="0 0 0 0 0 0 0 0 0 0 0 0 0 0 0 0 0 0 0.25 0"/>
<feBlend mode="normal" in2="BackgroundImageFix" result="effect1_dropShadow_85_25"/>
<feBlend mode="normal" in="SourceGraphic" in2="effect1_dropShadow_85_25" result="shape"/>
</filter>
</defs>
</svg>
